# xmcd
#
# Track frame offsets:
# 150
# 19373
# 40251
# 58291
# 76187
# 90050
# 103304
# 117339
# 133700
# 147322
# 159595
# 171691
# 187359
# 201443
#
# Disc length: 2955 seconds
#
#
# Revision: 3
# Processed by: cddbd v1.5.2PL0 Copyright (c) Steve Scherf et al.
# Submitted via: FreeRIP 2.70 
#
DISCID=d30b890e
DTITLE=Oswaldo Montenegro - Entre uma balada e um blues
DYEAR=2001
DGENRE=MPB
TTITLE0=Entre uma balada e um blues
TTITLE1=Mel do Sol
TTITLE2=Silêncio no afeto
TTITLE3=Figura Louca
TTITLE4=Solidão em Copacabana
TTITLE5=Sem Mandamentos
TTITLE6=No final da brincadeira
TTITLE7=Urublue
TTITLE8=Mistérios do Mundo
TTITLE9=De barcos e Névoas
TTITLE10=Mais leve de branco
TTITLE11=Como se estivesse fora
TTITLE12=Tá certo
TTITLE13=Eu canto meu blues
EXTD=YEAR: 2001
EXTT0=
EXTT1=
EXTT2=
EXTT3=
EXTT4=
EXTT5=
EXTT6=
EXTT7=
EXTT8=
EXTT9=
EXTT10=
EXTT11=
EXTT12=
EXTT13=
PLAYORDER=
